Coordinates	
version=1	
nRows=211	
nColumns=2	
inDegrees=yes	
endheader	
time	shoulder_elv
0	30.00000087
0.01	29.98704122
0.011535317	29.98275853
0.013986729	29.97465364
0.016657117	29.96405581
0.019014353	29.95316565
0.020867226	29.94360024
0.022720098	29.93314503
0.025137535	29.91817317
0.027554971	29.90168918
0.029199265	29.88961889
0.030843559	29.87684922
0.033760666	29.85248128
0.036383614	29.82869693
0.03800636	29.81309831
0.040022159	29.79277584
0.04300888	29.76074739
0.044811751	29.74030114
0.046614623	29.71902454
0.049085731	29.68850563
0.051307619	29.65973104
0.053529507	29.62968855
0.055360917	29.60398039
0.057192327	29.57741221
0.059577471	29.54152927
0.061962615	29.5041922
0.063750626	29.47525511
0.065538637	29.44550162
0.068090689	29.40162732
0.070427014	29.36000842
0.072336075	29.32497545
0.074245136	29.28901575
0.076585969	29.24366601
0.078926802	29.19692678
0.08066588	29.16131015
0.082404958	29.1249279
0.085031888	29.06852779
0.087458446	29.01488407
0.089302097	28.9731403
0.091145747	28.93054081
0.09363162	28.87175526
0.095859282	28.81775902
0.098086944	28.76252669
0.099915204	28.71626693
0.101743464	28.66917783
0.104190278	28.60485345
0.106637091	28.53904476
0.108453502	28.48922588
0.110269913	28.43859394
0.112699019	28.36960621
0.115128124	28.29916491
0.116984926	28.2443349
0.118841728	28.18866063
0.121225876	28.11593068
0.123610025	28.04181059
0.125462484	27.9832556
0.127314944	27.92386636
0.129716776	27.8456168
0.132118608	27.76596701
0.133965023	27.70377938
0.135811437	27.64076948
0.13822255	27.55724555
0.140633663	27.47232187
0.142476573	27.40646304
0.144319483	27.33979187
0.146731767	27.25128962
0.14914405	27.16139836
0.150993255	27.0915449
0.152842459	27.02088082
0.15524971	26.92767244
0.157656962	26.83309367
0.159510619	26.75932714
0.161364276	26.68475372
0.163779723	26.58636381
0.166195169	26.48660777
0.168055023	26.40886233
0.169914877	26.33031289
0.172322935	26.2274115
0.174730993	26.12316669
0.176565539	26.04284364
0.178400084	25.96174682
0.18086523	25.85155103
0.183330377	25.7399631
0.185183485	25.65515909
0.187036593	25.56957486
0.18943816	25.45749524
0.191839727	25.34410974
0.193719554	25.25444297
0.19559938	25.16398267
0.198020433	25.04630491
0.200441485	24.92731702
0.202271416	24.83650801
0.204101347	24.74495721
0.206600857	24.6187053
0.208622743	24.51556954
0.210644628	24.41153079
0.213124524	24.28270174
0.215115541	24.17829283
0.217106558	24.0730236
0.219511599	23.94471273
0.221634193	23.83043403
0.223756788	23.71518164
0.225879382	23.59896581
0.228001977	23.48178209
0.230124571	23.36364337
0.232247166	23.24454443
0.23436976	23.12449854
0.236492355	23.00350007
0.238614949	22.88156283
0.240737544	22.75868089
0.242860138	22.63486828
0.244982733	22.51011925
0.247105327	22.38444786
0.249227922	22.25784859
0.251350516	22.13033536
0.253473111	22.00190286
0.255595705	21.87256515
0.2577183	21.74231688
0.259840894	21.61117226
0.261963489	21.47912629
0.264086083	21.34619297
0.266208677	21.21236756
0.268331272	21.07766383
0.270453866	20.94207803
0.272576461	20.80562315
0.274699055	20.66829585
0.27682165	20.53010892
0.278944244	20.39106013
0.281066839	20.25116153
0.283189433	20.11041097
0.285312028	19.96882063
0.287434622	19.82638957
0.289557217	19.68312855
0.291679811	19.53903731
0.293802406	19.39412699
0.295925	19.24839808
0.298519965	19.06914083
0.300476127	18.93321122
0.302432288	18.79660807
0.304388449	18.65932875
0.307057177	18.47096727
0.30912656	18.32405677
0.311195944	18.17641194
0.313265327	18.0280327
0.31533471	17.87893152
0.317404093	17.7291089
0.319870886	17.54958548
0.322337678	17.36905416
0.324130429	17.2372321
0.32592318	17.10488633
0.328615845	16.90513998
0.330929345	16.73259824
0.333242845	16.55921854
0.335556345	16.38499984
0.337483601	16.23924374
0.339410856	16.09291775
0.341922767	15.90136449
0.344434679	15.70886704
0.346111771	15.57983202
0.347788862	15.45038397
0.350865257	15.21187829
0.353941651	14.97203521
0.355366511	14.86050546
0.357300922	14.70863678
0.360308813	14.47147474
0.363316705	14.23310697
0.365580529	14.0529144
0.367844352	13.87206591
0.370108175	13.69055962
0.371932223	13.54385215
0.373756272	13.39673112
0.376431737	13.18021329
0.379107202	12.9628427
0.380963943	12.81150225
0.382820684	12.65976331
0.385362439	12.45141883
0.387904195	12.24236329
0.389905484	12.0772744
0.391906773	11.91176117
0.394176214	11.72357492
0.396445655	11.53487506
0.398945977	11.32639595
0.4014463	11.11731864
0.403267433	10.96467528
0.405088567	10.8117304
0.408002165	10.56644041
0.410915762	10.32043515
0.412487128	10.18747757
0.41446003	10.02026559
0.417010015	9.803707386
0.419560714	9.58661481
0.422111413	9.369079807
0.424662111	9.151109656
0.426633281	8.982391306
0.428604451	8.813435512
0.431128628	8.596763796
0.433652805	8.379749988
0.435745939	8.199559056
0.437839074	8.019160224
0.440412539	7.797109332
0.442986005	7.574795834
0.444847904	7.413811958
0.446709802	7.25271016
0.449377412	7.0217255
0.452045021	6.790561351
0.454306044	6.594518044
0.456567066	6.398385568
0.458959689	6.19076965
0.461352312	5.983102334
0.463703399	5.77901817
0.466054486	5.574930746
